<?xml version="1.0" standalone="no"?>
<!DOCTYPE svg PUBLIC "-//W3C//DTD SVG 20010904//EN"
 "http://www.w3.org/TR/2001/REC-SVG-20010904/DTD/svg10.dtd">
<svg version="1.0" xmlns="http://www.w3.org/2000/svg"
 width="512.000000pt" height="512.000000pt" viewBox="0 0 512.000000 512.000000"
 preserveAspectRatio="xMidYMid meet">
<metadata>
Created by potrace 1.13, written by Peter Selinger 2001-2015
</metadata>
<g transform="translate(0.000000,512.000000) scale(0.100000,-0.100000)"
fill="#000000" stroke="none">
<path d="M2338 4689 c-795 -66 -1522 -508 -1948 -1184 -263 -416 -390 -866
-390 -1375 0 -501 143 -990 408 -1397 l73 -112 142 93 c78 51 159 103 179 117
21 13 38 28 38 33 0 5 -27 51 -61 103 -169 262 -285 577 -327 891 l-9 62 99 0
98 0 0 215 0 215 -99 0 -99 0 5 43 c12 103 56 296 94 412 67 205 216 485 336
631 l32 39 68 -67 68 -68 155 155 155 155 -69 69 -68 69 77 58 c285 210 649
356 993 398 l52 7 0 -101 0 -100 220 0 220 0 0 100 0 101 53 -7 c343 -42 707
-188 992 -398 l77 -58 -68 -69 -69 -69 155 -155 155 -155 68 68 68 67 32 -39
c120 -146 269 -426 336 -631 38 -116 82 -309 94 -412 l5 -43 -99 0 -99 0 0
-215 0 -215 98 0 99 0 -9 -63 c-42 -313 -158 -628 -327 -890 -34 -52 -61 -98
-61 -103 0 -5 17 -20 38 -33 20 -14 101 -66 179 -117 l142 -93 73 112 c265
407 408 896 408 1397 0 353 -56 655 -178 960 -420 1049 -1469 1693 -2604 1599z"/>
<path d="M3183 2956 l-581 -393 -79 -5 c-179 -10 -332 -137 -377 -313 -65
-248 92 -492 343 -535 172 -29 352 53 438 198 35 60 63 154 63 216 0 52 0 52
395 636 217 321 395 585 395 587 0 11 -76 -38 -597 -391z"/>
</g>
</svg>
