<?xml version="1.0" standalone="no"?>
<!DOCTYPE svg PUBLIC "-//W3C//DTD SVG 20010904//EN"
 "http://www.w3.org/TR/2001/REC-SVG-20010904/DTD/svg10.dtd">
<svg version="1.0" xmlns="http://www.w3.org/2000/svg"
 width="512.000000pt" height="512.000000pt" viewBox="0 0 512.000000 512.000000"
 preserveAspectRatio="xMidYMid meet">
<metadata>
Created by potrace 1.13, written by Peter Selinger 2001-2015
</metadata>
<g transform="translate(0.000000,512.000000) scale(0.100000,-0.100000)"
fill="#000000" stroke="none">
<path d="M1300 4750 c0 -5 -13 -10 -30 -10 -16 0 -30 -4 -30 -10 0 -5 -9 -10
-20 -10 -11 0 -20 -4 -20 -10 0 -5 -7 -10 -15 -10 -19 0 -145 -124 -145 -143
0 -7 -9 -19 -20 -27 -12 -8 -20 -26 -20 -42 0 -15 -4 -28 -10 -28 -5 0 -10
-13 -10 -30 0 -16 -4 -30 -10 -30 -7 0 -10 -299 -10 -876 0 -745 -2 -878 -14
-890 -12 -11 -66 -14 -300 -14 -184 0 -286 -4 -286 -10 0 -5 -7 -10 -15 -10
-20 0 -85 -65 -85 -85 0 -8 -4 -15 -10 -15 -6 0 -10 -33 -10 -80 0 -47 4 -80
10 -80 6 0 10 -8 10 -18 0 -10 9 -24 20 -32 11 -8 20 -22 20 -32 0 -10 7 -18
15 -18 9 0 51 -36 95 -80 44 -44 84 -80 90 -80 6 0 38 -27 70 -60 32 -33 64
-60 70 -60 6 0 46 -36 90 -80 44 -44 84 -80 90 -80 11 0 80 -65 80 -75 0 -3
-130 -5 -290 -5 -283 0 -290 0 -290 -20 0 -13 -7 -20 -20 -20 -20 0 -20 -7
-20 -700 0 -693 0 -700 20 -700 13 0 20 -7 20 -20 0 -20 7 -20 2240 -20 2233
0 2240 0 2240 20 0 13 7 20 20 20 20 0 20 7 20 700 0 693 0 700 -20 700 -13 0
-20 7 -20 20 0 20 -7 20 -270 20 -148 0 -270 3 -270 6 0 10 28 34 40 34 6 0
42 32 80 70 38 39 74 70 80 70 6 0 38 27 70 60 32 33 64 60 70 60 6 0 46 36
90 80 44 44 84 80 90 80 16 0 100 88 100 105 0 8 5 15 10 15 6 0 10 37 10 90
0 53 -4 90 -10 90 -5 0 -10 7 -10 15 0 20 -85 105 -105 105 -8 0 -15 5 -15 10
0 6 -110 10 -310 10 -200 0 -310 4 -310 10 0 6 -18 10 -40 10 l-40 0 0 830 c0
547 -3 830 -10 830 -6 0 -10 27 -10 60 0 33 -4 60 -10 60 -5 0 -10 14 -10 30
0 17 -4 30 -10 30 -5 0 -10 8 -10 18 0 10 -9 24 -20 32 -11 8 -20 20 -20 27 0
17 -106 123 -123 123 -7 0 -19 9 -27 20 -8 11 -22 20 -32 20 -10 0 -18 5 -18
10 0 6 -18 10 -40 10 -22 0 -40 5 -40 10 0 7 -403 10 -1190 10 -787 0 -1190
-3 -1190 -10z m2340 -260 c0 -5 9 -10 20 -10 11 0 20 -4 20 -10 0 -5 7 -10 16
-10 20 0 44 -24 44 -44 0 -9 5 -16 10 -16 6 0 10 -9 10 -20 0 -11 5 -20 10
-20 6 0 10 -117 10 -330 0 -213 -4 -330 -10 -330 -6 0 -10 -52 -10 -136 0
-156 -4 -164 -74 -164 -25 0 -46 -4 -46 -10 0 -5 -9 -10 -20 -10 -11 0 -20 -4
-20 -10 0 -5 -22 -10 -50 -10 -27 0 -50 -4 -50 -10 0 -5 -9 -10 -20 -10 -11 0
-20 -4 -20 -10 0 -5 -18 -10 -40 -10 -22 0 -40 -4 -40 -10 0 -5 -9 -10 -20
-10 -11 0 -20 -4 -20 -10 0 -5 -13 -10 -30 -10 -16 0 -30 -4 -30 -10 0 -5 -9
-10 -20 -10 -11 0 -20 -4 -20 -10 0 -5 -13 -10 -28 -10 -16 0 -34 -8 -42 -20
-8 -12 -26 -20 -42 -20 -15 0 -28 -4 -28 -10 0 -5 -9 -10 -20 -10 -11 0 -20
-4 -20 -10 0 -5 -9 -10 -20 -10 -11 0 -20 -4 -20 -10 0 -5 -9 -10 -20 -10 -11
0 -20 -4 -20 -10 0 -5 -8 -10 -18 -10 -10 0 -24 -9 -32 -20 -8 -11 -22 -20
-32 -20 -10 0 -18 -4 -18 -10 0 -5 -8 -10 -18 -10 -10 0 -24 -9 -32 -20 -8
-11 -22 -20 -32 -20 -10 0 -18 -4 -18 -10 0 -5 9 -10 20 -10 11 0 20 -4 20
-10 0 -5 9 -10 20 -10 12 0 20 -7 20 -16 0 -18 23 -44 39 -44 14 0 341 -327
341 -341 0 -16 26 -39 44 -39 9 0 16 -7 16 -16 0 -9 13 -29 30 -44 16 -15 30
-33 30 -40 0 -7 14 -25 30 -40 17 -15 30 -35 30 -44 0 -9 5 -16 10 -16 6 0 10
-7 10 -16 0 -9 13 -29 30 -44 16 -15 30 -31 30 -34 0 -3 -31 -6 -70 -6 -63 0
-70 -2 -70 -20 0 -13 -7 -20 -20 -20 -19 0 -20 -7 -20 -240 l0 -240 -1056 0
-1055 0 -59 60 c-32 33 -64 60 -70 60 -6 0 -46 36 -90 80 -44 44 -84 80 -90
80 -6 0 -46 36 -90 80 -44 44 -84 80 -90 80 -6 0 -46 36 -90 80 -44 44 -84 80
-90 80 -21 0 -60 49 -60 75 l0 25 326 0 c269 0 328 2 340 14 12 12 14 83 14
430 0 271 3 416 10 416 6 0 10 67 10 180 0 113 4 180 10 180 6 0 10 60 10 160
0 100 4 160 10 160 6 0 10 79 10 218 0 206 1 218 20 232 11 8 20 22 20 32 0
11 7 18 20 18 11 0 20 5 20 10 0 6 9 10 20 10 11 0 20 5 20 10 0 7 390 10
1150 10 760 0 1150 -3 1150 -10z m320 -2630 l0 -260 380 0 380 0 0 -620 0
-620 -640 0 -640 0 0 880 0 880 260 0 260 0 0 -260z m-2280 -380 l0 -120 -380
0 -380 0 0 -140 0 -140 380 0 380 0 0 -360 0 -360 -640 0 -640 0 0 120 0 120
380 0 380 0 0 120 0 120 -380 0 -380 0 0 380 0 380 640 0 640 0 0 -120z m1520
-500 l0 -620 -640 0 -640 0 0 360 0 360 380 0 380 0 0 140 0 140 -380 0 -380
0 0 120 0 120 640 0 640 0 0 -620z"/>
<path d="M3960 980 l0 -380 120 0 120 0 0 380 0 380 -120 0 -120 0 0 -380z"/>
<path d="M2440 720 l0 -120 120 0 120 0 0 120 0 120 -120 0 -120 0 0 -120z"/>
</g>
</svg>
